<svg xmlns="http://www.w3.org/2000/svg" viewBox="0 0 24 24" width="32" height="32">
  <defs>
    <linearGradient id="tooth-gradient" x1="0%" y1="0%" x2="100%" y2="100%">
      <stop offset="0%" stop-color="#4f46e5" />
      <stop offset="100%" stop-color="#06b6d4" />
    </linearGradient>
  </defs>
  <path d="M12 2c2 0 3 1.5 3.5 3.5.5 2 1 2.5 2 3.5 1.5 1.5 2.5 3 2.5 5 0 3.5-2.5 6-4 6-1 0-1.5-1-2.5-2-1 1-1.5 2-2.5 2-1.5 0-4-2.5-4-6 0-2 1-3.5 2.5-5 1-1 1.5-1.5 2-3.5C9.5 3.5 10.5 2 12 2z" fill="url(#tooth-gradient)"/>
</svg>
